999
"DXF R12 Output"
 0 
SECTION
 2 
HEADER
 9 
$ACADVER
 1 
AC1009
 9 
$EXTMIN
 10 
 0 
 20 
 0 
 9 
$EXTMAX
 10 
 8.5 
 20 
 11 
 0 
ENDSEC
 0 
SECTION
 2 
ENTITIES
0
LINE
8
Layer 1
10
34.335200
20
33.077200
11
34.100125
21
30.745301
0
LINE
8
Layer 1
10
34.100125
20
30.745301
11
33.425920
21
28.573362
0
LINE
8
Layer 1
10
33.425920
20
28.573362
11
32.359111
21
26.607912
0
LINE
8
Layer 1
10
32.359111
20
26.607912
11
30.946227
21
24.895480
0
LINE
8
Layer 1
10
30.946227
20
24.895480
11
29.233797
21
23.482594
0
LINE
8
Layer 1
10
29.233797
20
23.482594
11
27.268347
21
22.415783
0
LINE
8
Layer 1
10
27.268347
20
22.415783
11
25.096405
21
21.741576
0
LINE
8
Layer 1
10
25.096405
20
21.741576
11
22.764500
21
21.506500
0
LINE
8
Layer 1
10
22.764500
20
21.506500
11
20.432606
21
21.741576
0
LINE
8
Layer 1
10
20.432606
20
21.741576
11
18.260670
21
22.415783
0
LINE
8
Layer 1
10
18.260670
20
22.415783
11
16.295221
21
23.482594
0
LINE
8
Layer 1
10
16.295221
20
23.482594
11
14.582787
21
24.895480
0
LINE
8
Layer 1
10
14.582787
20
24.895480
11
13.169899
21
26.607912
0
LINE
8
Layer 1
10
13.169899
20
26.607912
11
12.103086
21
28.573362
0
LINE
8
Layer 1
10
12.103086
20
28.573362
11
11.428876
21
30.745301
0
LINE
8
Layer 1
10
11.428876
20
30.745301
11
11.193800
21
33.077200
0
LINE
8
Layer 1
10
11.193800
20
33.077200
11
11.428875
21
35.409099
0
LINE
8
Layer 1
10
11.428875
20
35.409099
11
12.103080
21
37.581038
0
LINE
8
Layer 1
10
12.103080
20
37.581038
11
13.169889
21
39.546488
0
LINE
8
Layer 1
10
13.169889
20
39.546488
11
14.582772
21
41.258920
0
LINE
8
Layer 1
10
14.582772
20
41.258920
11
16.295203
21
42.671806
0
LINE
8
Layer 1
10
16.295203
20
42.671806
11
18.260653
21
43.738617
0
LINE
8
Layer 1
10
18.260653
20
43.738617
11
20.432595
21
44.412824
0
LINE
8
Layer 1
10
20.432595
20
44.412824
11
22.764500
21
44.647900
0
LINE
8
Layer 1
10
22.764500
20
44.647900
11
25.096394
21
44.412824
0
LINE
8
Layer 1
10
25.096394
20
44.412824
11
27.268330
21
43.738617
0
LINE
8
Layer 1
10
27.268330
20
43.738617
11
29.233779
21
42.671806
0
LINE
8
Layer 1
10
29.233779
20
42.671806
11
30.946212
21
41.258920
0
LINE
8
Layer 1
10
30.946212
20
41.258920
11
32.359101
21
39.546488
0
LINE
8
Layer 1
10
32.359101
20
39.546488
11
33.425914
21
37.581038
0
LINE
8
Layer 1
10
33.425914
20
37.581038
11
34.100124
21
35.409099
0
LINE
8
Layer 1
10
34.100124
20
35.409099
11
34.335200
21
33.077200
0
LINE
8
Layer 1
10
34.335200
20
33.077200
11
34.335200
21
33.077200
0
LINE
8
Layer 1
10
0.132288
20
0.132356
11
68.569700
21
18.882400
0
LINE
8
Layer 1
10
68.569700
20
18.882400
11
68.569700
21
47.007400
0
LINE
8
Layer 1
10
68.569700
20
47.007400
11
0.132300
21
65.757400
0
LINE
8
Layer 1
10
0.132300
20
65.757400
11
0.132300
21
0.132300
0
LINE
8
Layer 1
10
0.132300
20
0.132300
11
0.132288
21
0.132356
 0 
ENDSEC
 0 
EOF