999
"DXF R12 Output"
 0 
SECTION
 2 
HEADER
 9 
$ACADVER
 1 
AC1009
 9 
$EXTMIN
 10 
 0 
 20 
 0 
 9 
$EXTMAX
 10 
 8.5 
 20 
 11 
 0 
ENDSEC
 0 
SECTION
 2 
ENTITIES
0
LINE
8
Layer 1
10
145.698000
20
64.144700
11
145.582245
21
64.045481
0
LINE
8
Layer 1
10
145.582245
20
64.045481
11
138.851915
21
57.960071
0
LINE
8
Layer 1
10
138.851915
20
57.960071
11
138.810574
21
57.918730
0
LINE
8
Layer 1
10
138.810574
20
57.918730
11
138.802319
21
57.860853
0
LINE
8
Layer 1
10
138.802319
20
57.860853
11
138.388918
21
55.590010
0
LINE
8
Layer 1
10
138.388918
20
55.590010
11
137.841842
21
53.449936
0
LINE
8
Layer 1
10
137.841842
20
53.449936
11
137.130923
21
51.422223
0
LINE
8
Layer 1
10
137.130923
20
51.422223
11
136.225993
21
49.488465
0
LINE
8
Layer 1
10
136.225993
20
49.488465
11
135.096884
21
47.630256
0
LINE
8
Layer 1
10
135.096884
20
47.630256
11
133.713429
21
45.829189
0
LINE
8
Layer 1
10
133.713429
20
45.829189
11
132.045460
21
44.066857
0
LINE
8
Layer 1
10
132.045460
20
44.066857
11
130.062809
21
42.324853
0
LINE
8
Layer 1
10
130.062809
20
42.324853
11
127.734412
21
40.585775
0
LINE
8
Layer 1
10
127.734412
20
40.585775
11
125.029593
21
38.832835
0
LINE
8
Layer 1
10
125.029593
20
38.832835
11
121.918763
21
37.048554
0
LINE
8
Layer 1
10
121.918763
20
37.048554
11
118.372336
21
35.215448
0
LINE
8
Layer 1
10
118.372336
20
35.215448
11
109.854341
21
31.332838
0
LINE
8
Layer 1
10
109.854341
20
31.332838
11
99.238909
21
27.045153
0
LINE
8
Layer 1
10
99.238909
20
27.045153
11
86.843291
21
22.557173
0
LINE
8
Layer 1
10
86.843291
20
22.557173
11
73.458763
21
18.220391
0
LINE
8
Layer 1
10
73.458763
20
18.220391
11
59.581482
21
14.123451
0
LINE
8
Layer 1
10
59.581482
20
14.123451
11
45.707602
21
10.354993
0
LINE
8
Layer 1
10
45.707602
20
10.354993
11
32.333280
21
7.003660
0
LINE
8
Layer 1
10
32.333280
20
7.003660
11
19.954670
21
4.158094
0
LINE
8
Layer 1
10
19.954670
20
4.158094
11
9.067928
21
1.906936
0
LINE
8
Layer 1
10
9.067928
20
1.906936
11
0.169210
21
0.338830
0
LINE
8
Layer 1
10
0.169210
20
0.338830
11
0.144405
21
0.338830
0
LINE
8
Layer 1
10
0.144405
20
0.338830
11
0.169210
21
-0.000154
0
LINE
8
Layer 1
10
0.169210
20
-0.000154
11
0.194015
21
-0.000154
0
LINE
8
Layer 1
10
0.194015
20
-0.000154
11
174.240015
21
-0.000154
0
LINE
8
Layer 1
10
174.240015
20
-0.000154
11
174.777449
21
-0.000154
0
LINE
8
Layer 1
10
174.777449
20
-0.000154
11
174.330965
21
0.305757
0
LINE
8
Layer 1
10
174.330965
20
0.305757
11
171.237045
21
2.785799
0
LINE
8
Layer 1
10
171.237045
20
2.785799
11
168.714864
21
5.446109
0
LINE
8
Layer 1
10
168.714864
20
5.446109
11
166.733619
21
8.225111
0
LINE
8
Layer 1
10
166.733619
20
8.225111
11
165.262508
21
11.061226
0
LINE
8
Layer 1
10
165.262508
20
11.061226
11
164.270730
21
13.892876
0
LINE
8
Layer 1
10
164.270730
20
13.892876
11
163.727481
21
16.658483
0
LINE
8
Layer 1
10
163.727481
20
16.658483
11
163.601960
21
19.296469
0
LINE
8
Layer 1
10
163.601960
20
19.296469
11
163.863365
21
21.745257
0
LINE
8
Layer 1
10
163.863365
20
21.745257
11
164.585869
21
24.202094
0
LINE
8
Layer 1
10
164.585869
20
24.202094
11
165.835380
21
26.816146
0
LINE
8
Layer 1
10
165.835380
20
26.816146
11
167.564426
21
29.431028
0
LINE
8
Layer 1
10
167.564426
20
29.431028
11
169.725535
21
31.890357
0
LINE
8
Layer 1
10
169.725535
20
31.890357
11
172.268844
21
34.039078
0
LINE
8
Layer 1
10
172.268844
20
34.039078
11
173.668169
21
34.949953
0
LINE
8
Layer 1
10
173.668169
20
34.949953
11
175.144762
21
35.726995
0
LINE
8
Layer 1
10
175.144762
20
35.726995
11
176.692739
21
36.351567
0
LINE
8
Layer 1
10
176.692739
20
36.351567
11
178.306216
21
36.805038
0
LINE
8
Layer 1
10
178.306216
20
36.805038
11
179.979309
21
37.068772
0
LINE
8
Layer 1
10
179.979309
20
37.068772
11
181.706135
21
37.124137
0
LINE
8
Layer 1
10
181.706135
20
37.124137
11
182.103009
21
37.107601
0
LINE
8
Layer 1
10
182.103009
20
37.107601
11
181.838426
21
37.405257
0
LINE
8
Layer 1
10
181.838426
20
37.405257
11
165.053926
21
56.066657
0
LINE
8
Layer 1
10
165.053926
20
56.066657
11
164.987780
21
56.141071
0
LINE
8
Layer 1
10
164.987780
20
56.141071
11
164.888561
21
56.116279
0
LINE
8
Layer 1
10
164.888561
20
56.116279
11
156.479781
21
54.280739
0
LINE
8
Layer 1
10
156.479781
20
54.280739
11
145.805481
21
64.045509
0
LINE
8
Layer 1
10
145.805481
20
64.045509
11
145.697994
21
64.144728
0
LINE
8
Layer 1
10
145.697994
20
64.144728
11
145.698000
21
64.144700
0
LINE
8
Layer 1
10
145.689745
20
63.698216
11
156.314445
21
53.974786
0
LINE
8
Layer 1
10
156.314445
20
53.974786
11
156.380591
21
53.916909
0
LINE
8
Layer 1
10
156.380591
20
53.916909
11
156.463273
21
53.933445
0
LINE
8
Layer 1
10
156.463273
20
53.933445
11
164.863783
21
55.760725
0
LINE
8
Layer 1
10
164.863783
20
55.760725
11
181.350583
21
37.454925
0
LINE
8
Layer 1
10
181.350583
20
37.454925
11
179.638393
21
37.357929
0
LINE
8
Layer 1
10
179.638393
20
37.357929
11
177.980765
21
37.063277
0
LINE
8
Layer 1
10
177.980765
20
37.063277
11
176.383292
21
36.588569
0
LINE
8
Layer 1
10
176.383292
20
36.588569
11
174.851567
21
35.951404
0
LINE
8
Layer 1
10
174.851567
20
35.951404
11
173.391181
21
35.169384
0
LINE
8
Layer 1
10
173.391181
20
35.169384
11
172.007727
21
34.260109
0
LINE
8
Layer 1
10
172.007727
20
34.260109
11
169.493983
21
32.130195
0
LINE
8
Layer 1
10
169.493983
20
32.130195
11
167.299945
21
29.637294
0
LINE
8
Layer 1
10
167.299945
20
29.637294
11
165.543215
21
26.986989
0
LINE
8
Layer 1
10
165.543215
20
26.986989
11
164.271522
21
24.328611
0
LINE
8
Layer 1
10
164.271522
20
24.328611
11
163.532593
21
21.811495
0
LINE
8
Layer 1
10
163.532593
20
21.811495
11
163.267019
21
19.349164
0
LINE
8
Layer 1
10
163.267019
20
19.349164
11
163.385338
21
16.705600
0
LINE
8
Layer 1
10
163.385338
20
16.705600
11
163.915741
21
13.939742
0
LINE
8
Layer 1
10
163.915741
20
13.939742
11
164.886414
21
11.110527
0
LINE
8
Layer 1
10
164.886414
20
11.110527
11
166.325547
21
8.276897
0
LINE
8
Layer 1
10
166.325547
20
8.276897
11
168.261329
21
5.497788
0
LINE
8
Layer 1
10
168.261329
20
5.497788
11
170.721948
21
2.832141
0
LINE
8
Layer 1
10
170.721948
20
2.832141
11
173.735593
21
0.338895
0
LINE
8
Layer 1
10
173.735593
20
0.338895
11
2.120593
21
0.338895
0
LINE
8
Layer 1
10
2.120593
20
0.338895
11
11.213578
21
2.004605
0
LINE
8
Layer 1
10
11.213578
20
2.004605
11
22.085369
21
4.297049
0
LINE
8
Layer 1
10
22.085369
20
4.297049
11
34.284035
21
7.136189
0
LINE
8
Layer 1
10
34.284035
20
7.136189
11
47.357649
21
10.441987
0
LINE
8
Layer 1
10
47.357649
20
10.441987
11
60.854281
21
14.134405
0
LINE
8
Layer 1
10
60.854281
20
14.134405
11
74.322003
21
18.133405
0
LINE
8
Layer 1
10
74.322003
20
18.133405
11
87.308886
21
22.358949
0
LINE
8
Layer 1
10
87.308886
20
22.358949
11
99.363000
21
26.731000
0
LINE
8
Layer 1
10
99.363000
20
26.731000
11
109.988198
21
31.021903
0
LINE
8
Layer 1
10
109.988198
20
31.021903
11
118.521037
21
34.910791
0
LINE
8
Layer 1
10
118.521037
20
34.910791
11
122.077819
21
36.749619
0
LINE
8
Layer 1
10
122.077819
20
36.749619
11
125.201508
21
38.542109
0
LINE
8
Layer 1
10
125.201508
20
38.542109
11
127.922102
21
40.306318
0
LINE
8
Layer 1
10
127.922102
20
40.306318
11
130.269600
21
42.060300
0
LINE
8
Layer 1
10
130.269600
20
42.060300
11
132.266801
21
43.816254
0
LINE
8
Layer 1
10
132.266801
20
43.816254
11
133.951408
21
45.597848
0
LINE
8
Layer 1
10
133.951408
20
45.597848
11
135.352533
21
47.421496
0
LINE
8
Layer 1
10
135.352533
20
47.421496
11
136.499289
21
49.303615
0
LINE
8
Layer 1
10
136.499289
20
49.303615
11
137.420787
21
51.260619
0
LINE
8
Layer 1
10
137.420787
20
51.260619
11
138.146140
21
53.308925
0
LINE
8
Layer 1
10
138.146140
20
53.308925
11
138.704460
21
55.464946
0
LINE
8
Layer 1
10
138.704460
20
55.464946
11
139.124860
21
57.745100
0
LINE
8
Layer 1
10
139.124860
20
57.745100
11
145.689830
21
63.698220
0
LINE
8
Layer 1
10
145.689830
20
63.698220
11
145.689745
21
63.698216
 0 
ENDSEC
 0 
EOF