999
"DXF R12 Output"
 0 
SECTION
 2 
HEADER
 9 
$ACADVER
 1 
AC1009
 9 
$EXTMIN
 10 
 0 
 20 
 0 
 9 
$EXTMAX
 10 
 8.5 
 20 
 11 
 0 
ENDSEC
 0 
SECTION
 2 
ENTITIES
0
LINE
8
Layer 1
10
13.948500
20
112.628000
11
13.931964
21
112.512245
0
LINE
8
Layer 1
10
13.931964
20
112.512245
11
0.000064
21
0.139245
0
LINE
8
Layer 1
10
0.000064
20
0.139245
11
-0.016473
21
-0.009556
0
LINE
8
Layer 1
10
-0.016473
20
-0.009556
11
0.132355
21
-0.009556
0
LINE
8
Layer 1
10
0.132355
20
-0.009556
11
3.886125
21
-0.009556
0
LINE
8
Layer 1
10
3.886125
20
-0.009556
11
4.010148
21
-0.009556
0
LINE
8
Layer 1
10
4.010148
20
-0.009556
11
4.018416
21
0.114454
0
LINE
8
Layer 1
10
4.018416
20
0.114454
11
4.644930
21
5.536439
0
LINE
8
Layer 1
10
4.644930
20
5.536439
11
5.670307
21
10.233672
0
LINE
8
Layer 1
10
5.670307
20
10.233672
11
7.035559
21
14.205920
0
LINE
8
Layer 1
10
7.035559
20
14.205920
11
8.681696
21
17.452954
0
LINE
8
Layer 1
10
8.681696
20
17.452954
11
10.547297
21
19.973774
0
LINE
8
Layer 1
10
10.547297
20
19.973774
11
11.543114
21
20.962345
0
LINE
8
Layer 1
10
11.543114
20
20.962345
11
12.571161
21
21.770384
0
LINE
8
Layer 1
10
12.571161
20
21.770384
11
13.624105
21
22.398412
0
LINE
8
Layer 1
10
13.624105
20
22.398412
11
14.694610
21
22.846949
0
LINE
8
Layer 1
10
14.694610
20
22.846949
11
15.775342
21
23.116516
0
LINE
8
Layer 1
10
15.775342
20
23.116516
11
16.858966
21
23.207634
0
LINE
8
Layer 1
10
16.858966
20
23.207634
11
17.939833
21
23.120942
0
LINE
8
Layer 1
10
17.939833
20
23.120942
11
19.012392
21
22.856224
0
LINE
8
Layer 1
10
19.012392
20
22.856224
11
20.069458
21
22.412706
0
LINE
8
Layer 1
10
20.069458
20
22.412706
11
21.103844
21
21.789613
0
LINE
8
Layer 1
10
21.103844
20
21.789613
11
22.108364
21
20.986172
0
LINE
8
Layer 1
10
22.108364
20
20.986172
11
23.075832
21
20.001609
0
LINE
8
Layer 1
10
23.075832
20
20.001609
11
23.999061
21
18.835151
0
LINE
8
Layer 1
10
23.999061
20
18.835151
11
24.870866
21
17.486024
0
LINE
8
Layer 1
10
24.870866
20
17.486024
11
26.428414
21
14.239916
0
LINE
8
Layer 1
10
26.428414
20
14.239916
11
27.686265
21
10.264243
0
LINE
8
Layer 1
10
27.686265
20
10.264243
11
28.584414
21
5.558660
0
LINE
8
Layer 1
10
28.584414
20
5.558660
11
29.062856
21
0.122824
0
LINE
8
Layer 1
10
29.062856
20
0.122824
11
29.071111
21
-0.009468
0
LINE
8
Layer 1
10
29.071111
20
-0.009468
11
29.195134
21
-0.009468
0
LINE
8
Layer 1
10
29.195134
20
-0.009468
11
32.948904
21
-0.009468
0
LINE
8
Layer 1
10
32.948904
20
-0.009468
11
33.097732
21
-0.009468
0
LINE
8
Layer 1
10
33.097732
20
-0.009468
11
33.072941
21
0.139333
0
LINE
8
Layer 1
10
33.072941
20
0.139333
11
18.884641
21
112.512333
0
LINE
8
Layer 1
10
18.884641
20
112.512333
11
18.868105
21
112.628088
0
LINE
8
Layer 1
10
18.868105
20
112.628088
11
18.752350
21
112.628088
0
LINE
8
Layer 1
10
18.752350
20
112.628088
11
14.064270
21
112.628088
0
LINE
8
Layer 1
10
14.064270
20
112.628088
11
13.948515
21
112.628088
0
LINE
8
Layer 1
10
13.948515
20
112.628088
11
13.948500
21
112.628000
0
LINE
8
Layer 1
10
14.180010
20
112.363417
11
18.636580
21
112.363417
0
LINE
8
Layer 1
10
18.636580
20
112.363417
11
32.800080
21
0.254417
0
LINE
8
Layer 1
10
32.800080
20
0.254417
11
29.319160
21
0.254417
0
LINE
8
Layer 1
10
29.319160
20
0.254417
11
28.833490
21
5.671259
0
LINE
8
Layer 1
10
28.833490
20
5.671259
11
27.931628
21
10.371382
0
LINE
8
Layer 1
10
27.931628
20
10.371382
11
26.669335
21
14.353823
0
LINE
8
Layer 1
10
26.669335
20
14.353823
11
25.102370
21
17.617617
0
LINE
8
Layer 1
10
25.102370
20
17.617617
11
24.216556
21
18.987485
0
LINE
8
Layer 1
10
24.216556
20
18.987485
11
23.274506
21
20.176015
0
LINE
8
Layer 1
10
23.274506
20
20.176015
11
22.283679
21
21.182714
0
LINE
8
Layer 1
10
22.283679
20
21.182714
11
21.251535
21
22.007090
0
LINE
8
Layer 1
10
21.251535
20
22.007090
11
20.185532
21
22.648650
0
LINE
8
Layer 1
10
20.185532
20
22.648650
11
19.093129
21
23.106903
0
LINE
8
Layer 1
10
19.093129
20
23.106903
11
17.981785
21
23.381356
0
LINE
8
Layer 1
10
17.981785
20
23.381356
11
16.858960
21
23.471517
0
LINE
8
Layer 1
10
16.858960
20
23.471517
11
15.733739
21
23.377070
0
LINE
8
Layer 1
10
15.733739
20
23.377070
11
14.615176
21
23.098438
0
LINE
8
Layer 1
10
14.615176
20
23.098438
11
13.510677
21
22.636231
0
LINE
8
Layer 1
10
13.510677
20
22.636231
11
12.427652
21
21.991055
0
LINE
8
Layer 1
10
12.427652
20
21.991055
11
11.373509
21
21.163518
0
LINE
8
Layer 1
10
11.373509
20
21.163518
11
10.355656
21
20.154228
0
LINE
8
Layer 1
10
10.355656
20
20.154228
11
9.381500
21
18.963792
0
LINE
8
Layer 1
10
9.381500
20
18.963792
11
8.458450
21
17.592817
0
LINE
8
Layer 1
10
8.458450
20
17.592817
11
6.802989
21
14.329005
0
LINE
8
Layer 1
10
6.802989
20
14.329005
11
5.433061
21
10.349870
0
LINE
8
Layer 1
10
5.433061
20
10.349870
11
4.403808
21
5.657608
0
LINE
8
Layer 1
10
4.403808
20
5.657608
11
3.770370
21
0.254417
0
LINE
8
Layer 1
10
3.770370
20
0.254417
11
0.281180
21
0.254417
0
LINE
8
Layer 1
10
0.281180
20
0.254417
11
14.180080
21
112.363417
0
LINE
8
Layer 1
10
14.180080
20
112.363417
11
14.180010
21
112.363417
 0 
ENDSEC
 0 
EOF