999
"DXF R12 Output"
 0 
SECTION
 2 
HEADER
 9 
$ACADVER
 1 
AC1009
 9 
$EXTMIN
 10 
 0 
 20 
 0 
 9 
$EXTMAX
 10 
 8.5 
 20 
 11 
 0 
ENDSEC
 0 
SECTION
 2 
ENTITIES
0
LINE
8
Layer 1
10
148.125000
20
63.951600
11
148.034050
21
63.835845
0
LINE
8
Layer 1
10
148.034050
20
63.835845
11
144.885879
21
59.774256
0
LINE
8
Layer 1
10
144.885879
20
59.774256
11
141.487040
21
56.052241
0
LINE
8
Layer 1
10
141.487040
20
56.052241
11
137.853051
21
52.649239
0
LINE
8
Layer 1
10
137.853051
20
52.649239
11
133.999432
21
49.544686
0
LINE
8
Layer 1
10
133.999432
20
49.544686
11
129.941705
21
46.718018
0
LINE
8
Layer 1
10
129.941705
20
46.718018
11
125.695387
21
44.148672
0
LINE
8
Layer 1
10
125.695387
20
44.148672
11
121.275999
21
41.816085
0
LINE
8
Layer 1
10
121.275999
20
41.816085
11
116.699062
21
39.699695
0
LINE
8
Layer 1
10
116.699062
20
39.699695
11
111.980095
21
37.778937
0
LINE
8
Layer 1
10
111.980095
20
37.778937
11
107.134617
21
36.033249
0
LINE
8
Layer 1
10
107.134617
20
36.033249
11
102.178149
21
34.442068
0
LINE
8
Layer 1
10
102.178149
20
34.442068
11
97.126211
21
32.984829
0
LINE
8
Layer 1
10
97.126211
20
32.984829
11
86.798002
21
30.389930
0
LINE
8
Layer 1
10
86.798002
20
30.389930
11
76.274150
21
28.084045
0
LINE
8
Layer 1
10
76.274150
20
28.084045
11
55.139543
21
23.680482
0
LINE
8
Layer 1
10
55.139543
20
23.680482
11
44.779071
21
21.251996
0
LINE
8
Layer 1
10
44.779071
20
21.251996
11
34.723025
21
18.451627
0
LINE
8
Layer 1
10
34.723025
20
18.451627
11
29.848193
21
16.860250
0
LINE
8
Layer 1
10
29.848193
20
16.860250
11
25.096306
21
15.113818
0
LINE
8
Layer 1
10
25.096306
20
15.113818
11
20.482977
21
13.191635
0
LINE
8
Layer 1
10
20.482977
20
13.191635
11
16.023818
21
11.073007
0
LINE
8
Layer 1
10
16.023818
20
11.073007
11
11.734444
21
8.737239
0
LINE
8
Layer 1
10
11.734444
20
8.737239
11
7.630465
21
6.163636
0
LINE
8
Layer 1
10
7.630465
20
6.163636
11
3.727496
21
3.331503
0
LINE
8
Layer 1
10
3.727496
20
3.331503
11
0.041150
21
0.220145
0
LINE
8
Layer 1
10
0.041150
20
0.220145
11
-0.099410
21
0.087853
0
LINE
8
Layer 1
10
-0.099410
20
0.087853
11
0.074223
21
0.005144
0
LINE
8
Layer 1
10
0.074223
20
0.005144
11
0.099027
21
-0.011260
0
LINE
8
Layer 1
10
0.099027
20
-0.011260
11
0.132100
21
-0.011260
0
LINE
8
Layer 1
10
0.132100
20
-0.011260
11
140.758100
21
-0.011260
0
LINE
8
Layer 1
10
140.758100
20
-0.011260
11
140.849051
21
-0.011260
0
LINE
8
Layer 1
10
140.849051
20
-0.011260
11
140.882124
21
0.079677
0
LINE
8
Layer 1
10
140.882124
20
0.079677
11
160.469524
21
53.136877
0
LINE
8
Layer 1
10
160.469524
20
53.136877
11
160.502596
21
53.219560
0
LINE
8
Layer 1
10
160.502596
20
53.219560
11
160.436451
21
53.285705
0
LINE
8
Layer 1
10
160.436451
20
53.285705
11
148.232551
21
63.852505
0
LINE
8
Layer 1
10
148.232551
20
63.852505
11
148.125064
21
63.951724
0
LINE
8
Layer 1
10
148.125064
20
63.951724
11
148.125000
21
63.951600
0
LINE
8
Layer 1
10
148.166000
20
63.562900
11
160.188000
21
53.144900
0
LINE
8
Layer 1
10
160.188000
20
53.144900
11
140.666700
21
0.253100
0
LINE
8
Layer 1
10
140.666700
20
0.253100
11
0.487700
21
0.253100
0
LINE
8
Layer 1
10
0.487700
20
0.253100
11
4.158132
21
3.317630
0
LINE
8
Layer 1
10
4.158132
20
3.317630
11
8.042788
21
6.108781
0
LINE
8
Layer 1
10
8.042788
20
6.108781
11
12.126331
21
8.646815
0
LINE
8
Layer 1
10
12.126331
20
8.646815
11
16.393423
21
10.951997
0
LINE
8
Layer 1
10
16.393423
20
10.951997
11
20.828726
21
13.044590
0
LINE
8
Layer 1
10
20.828726
20
13.044590
11
25.416900
21
14.944858
0
LINE
8
Layer 1
10
25.416900
20
14.944858
11
30.142609
21
16.673065
0
LINE
8
Layer 1
10
30.142609
20
16.673065
11
34.990513
21
18.249475
0
LINE
8
Layer 1
10
34.990513
20
18.249475
11
44.991554
21
21.027957
0
LINE
8
Layer 1
10
44.991554
20
21.027957
11
55.297320
21
23.442416
0
LINE
8
Layer 1
10
55.297320
20
23.442416
11
76.332200
21
27.827700
0
LINE
8
Layer 1
10
76.332200
20
27.827700
11
86.844179
21
30.130431
0
LINE
8
Layer 1
10
86.844179
20
30.130431
11
97.167444
21
32.722417
0
LINE
8
Layer 1
10
97.167444
20
32.722417
11
102.219368
21
34.178299
0
LINE
8
Layer 1
10
102.219368
20
34.178299
11
107.177387
21
35.768198
0
LINE
8
Layer 1
10
107.177387
20
35.768198
11
112.025923
21
37.512680
0
LINE
8
Layer 1
10
112.025923
20
37.512680
11
116.749400
21
39.432313
0
LINE
8
Layer 1
10
116.749400
20
39.432313
11
121.332243
21
41.547664
0
LINE
8
Layer 1
10
121.332243
20
41.547664
11
125.758876
21
43.879301
0
LINE
8
Layer 1
10
125.758876
20
43.879301
11
130.013722
21
46.447791
0
LINE
8
Layer 1
10
130.013722
20
46.447791
11
134.081206
21
49.273702
0
LINE
8
Layer 1
10
134.081206
20
49.273702
11
137.945752
21
52.377600
0
LINE
8
Layer 1
10
137.945752
20
52.377600
11
141.591784
21
55.780055
0
LINE
8
Layer 1
10
141.591784
20
55.780055
11
145.003725
21
59.501632
0
LINE
8
Layer 1
10
145.003725
20
59.501632
11
148.166000
21
63.562900
0
LINE
8
Layer 1
10
148.166000
20
63.562900
11
148.166000
21
63.562900
 0 
ENDSEC
 0 
EOF