999
"DXF R12 Output"
 0 
SECTION
 2 
HEADER
 9 
$ACADVER
 1 
AC1009
 9 
$EXTMIN
 10 
 0 
 20 
 0 
 9 
$EXTMAX
 10 
 8.5 
 20 
 11 
 0 
ENDSEC
 0 
SECTION
 2 
ENTITIES
0
LINE
8
Layer 1
10
92.459900
20
80.988400
11
95.396741
21
77.931180
0
LINE
8
Layer 1
10
95.396741
20
77.931180
11
98.352393
21
75.018178
0
LINE
8
Layer 1
10
98.352393
20
75.018178
11
101.353950
21
72.457111
0
LINE
8
Layer 1
10
101.353950
20
72.457111
11
102.880409
21
71.373465
0
LINE
8
Layer 1
10
102.880409
20
71.373465
11
104.428505
21
70.455696
0
LINE
8
Layer 1
10
104.428505
20
70.455696
11
106.001624
21
69.729770
0
LINE
8
Layer 1
10
106.001624
20
69.729770
11
107.603154
21
69.221650
0
LINE
8
Layer 1
10
107.603154
20
69.221650
11
109.236480
21
68.957301
0
LINE
8
Layer 1
10
109.236480
20
68.957301
11
110.904989
21
68.962689
0
LINE
8
Layer 1
10
110.904989
20
68.962689
11
112.612070
21
69.263777
0
LINE
8
Layer 1
10
112.612070
20
69.263777
11
114.361107
21
69.886530
0
LINE
8
Layer 1
10
114.361107
20
69.886530
11
116.155488
21
70.856913
0
LINE
8
Layer 1
10
116.155488
20
70.856913
11
117.998600
21
72.200890
0
LINE
8
Layer 1
10
117.998600
20
72.200890
11
119.400170
21
68.115017
0
LINE
8
Layer 1
10
119.400170
20
68.115017
11
120.999720
21
64.166871
0
LINE
8
Layer 1
10
120.999720
20
64.166871
11
122.797163
21
60.356391
0
LINE
8
Layer 1
10
122.797163
20
60.356391
11
124.792414
21
56.683517
0
LINE
8
Layer 1
10
124.792414
20
56.683517
11
126.985386
21
53.148188
0
LINE
8
Layer 1
10
126.985386
20
53.148188
11
129.375992
21
49.750346
0
LINE
8
Layer 1
10
129.375992
20
49.750346
11
131.964147
21
46.489929
0
LINE
8
Layer 1
10
131.964147
20
46.489929
11
134.749765
21
43.366878
0
LINE
8
Layer 1
10
134.749765
20
43.366878
11
137.732759
21
40.381131
0
LINE
8
Layer 1
10
137.732759
20
40.381131
11
140.913042
21
37.532629
0
LINE
8
Layer 1
10
140.913042
20
37.532629
11
144.290529
21
34.821312
0
LINE
8
Layer 1
10
144.290529
20
34.821312
11
147.865134
21
32.247120
0
LINE
8
Layer 1
10
147.865134
20
32.247120
11
151.636769
21
29.809991
0
LINE
8
Layer 1
10
151.636769
20
29.809991
11
155.605350
21
27.509867
0
LINE
8
Layer 1
10
155.605350
20
27.509867
11
159.770789
21
25.346687
0
LINE
8
Layer 1
10
159.770789
20
25.346687
11
164.133000
21
23.320390
0
LINE
8
Layer 1
10
164.133000
20
23.320390
11
160.999676
21
18.656204
0
LINE
8
Layer 1
10
160.999676
20
18.656204
11
157.977109
21
14.597698
0
LINE
8
Layer 1
10
157.977109
20
14.597698
11
155.046745
21
11.121864
0
LINE
8
Layer 1
10
155.046745
20
11.121864
11
152.190030
21
8.205698
0
LINE
8
Layer 1
10
152.190030
20
8.205698
11
149.388408
21
5.826192
0
LINE
8
Layer 1
10
149.388408
20
5.826192
11
146.623326
21
3.960341
0
LINE
8
Layer 1
10
146.623326
20
3.960341
11
143.876229
21
2.585138
0
LINE
8
Layer 1
10
143.876229
20
2.585138
11
141.128563
21
1.677578
0
LINE
8
Layer 1
10
141.128563
20
1.677578
11
138.361772
21
1.214654
0
LINE
8
Layer 1
10
138.361772
20
1.214654
11
135.557304
21
1.173360
0
LINE
8
Layer 1
10
135.557304
20
1.173360
11
132.696602
21
1.530690
0
LINE
8
Layer 1
10
132.696602
20
1.530690
11
129.761114
21
2.263638
0
LINE
8
Layer 1
10
129.761114
20
2.263638
11
126.732284
21
3.349199
0
LINE
8
Layer 1
10
126.732284
20
3.349199
11
123.591558
21
4.764365
0
LINE
8
Layer 1
10
123.591558
20
4.764365
11
120.320381
21
6.486131
0
LINE
8
Layer 1
10
120.320381
20
6.486131
11
116.900200
21
8.491490
0
LINE
8
Layer 1
10
116.900200
20
8.491490
11
89.713900
21
8.766101
0
LINE
8
Layer 1
10
89.713900
20
8.766101
11
85.218418
21
5.703701
0
LINE
8
Layer 1
10
85.218418
20
5.703701
11
81.084765
21
3.362329
0
LINE
8
Layer 1
10
81.084765
20
3.362329
11
77.282448
21
1.698025
0
LINE
8
Layer 1
10
77.282448
20
1.698025
11
73.780972
21
0.666828
0
LINE
8
Layer 1
10
73.780972
20
0.666828
11
70.549841
21
0.224774
0
LINE
8
Layer 1
10
70.549841
20
0.224774
11
67.558561
21
0.327903
0
LINE
8
Layer 1
10
67.558561
20
0.327903
11
64.776638
21
0.932254
0
LINE
8
Layer 1
10
64.776638
20
0.932254
11
62.173575
21
1.993864
0
LINE
8
Layer 1
10
62.173575
20
1.993864
11
59.718879
21
3.468772
0
LINE
8
Layer 1
10
59.718879
20
3.468772
11
57.382054
21
5.313016
0
LINE
8
Layer 1
10
57.382054
20
5.313016
11
55.132606
21
7.482635
0
LINE
8
Layer 1
10
55.132606
20
7.482635
11
52.940041
21
9.933668
0
LINE
8
Layer 1
10
52.940041
20
9.933668
11
48.603575
21
15.504127
0
LINE
8
Layer 1
10
48.603575
20
15.504127
11
44.128700
21
21.672701
0
LINE
8
Layer 1
10
44.128700
20
21.672701
11
0.191050
21
39.797000
0
LINE
8
Layer 1
10
0.191050
20
39.797000
11
92.459900
21
80.988400
0
LINE
8
Layer 1
10
92.459900
20
80.988400
11
92.459900
21
80.988400
 0 
ENDSEC
 0 
EOF