999
"DXF R12 Output"
 0 
SECTION
 2 
HEADER
 9 
$ACADVER
 1 
AC1009
 9 
$EXTMIN
 10 
 0 
 20 
 0 
 9 
$EXTMAX
 10 
 8.5 
 20 
 11 
 0 
ENDSEC
 0 
SECTION
 2 
ENTITIES
0
LINE
8
Layer 1
10
84.906300
20
51.860200
11
21.133600
21
46.510600
0
LINE
8
Layer 1
10
21.133600
20
46.510600
11
0.000000
21
25.914500
0
LINE
8
Layer 1
10
0.000000
20
25.914500
11
0.000000
21
7.038200
0
LINE
8
Layer 1
10
0.000000
20
7.038200
11
84.881500
21
-0.031168
0
LINE
8
Layer 1
10
84.881500
20
-0.031168
11
81.558203
21
2.778067
0
LINE
8
Layer 1
10
81.558203
20
2.778067
11
78.023928
21
5.265151
0
LINE
8
Layer 1
10
78.023928
20
5.265151
11
74.330789
21
7.509791
0
LINE
8
Layer 1
10
74.330789
20
7.509791
11
70.530900
21
9.591695
0
LINE
8
Layer 1
10
70.530900
20
9.591695
11
62.819322
21
13.586125
0
LINE
8
Layer 1
10
62.819322
20
13.586125
11
59.011860
21
15.658066
0
LINE
8
Layer 1
10
59.011860
20
15.658066
11
55.306100
21
17.886100
0
LINE
8
Layer 1
10
55.306100
20
17.886100
11
53.839097
21
19.078537
0
LINE
8
Layer 1
10
53.839097
20
19.078537
11
52.620044
21
20.521937
0
LINE
8
Layer 1
10
52.620044
20
20.521937
11
51.678875
21
22.157001
0
LINE
8
Layer 1
10
51.678875
20
22.157001
11
51.045525
21
23.924425
0
LINE
8
Layer 1
10
51.045525
20
23.924425
11
50.749928
21
25.764909
0
LINE
8
Layer 1
10
50.749928
20
25.764909
11
50.822019
21
27.619150
0
LINE
8
Layer 1
10
50.822019
20
27.619150
11
51.291731
21
29.427848
0
LINE
8
Layer 1
10
51.291731
20
29.427848
11
52.189000
21
31.131700
0
LINE
8
Layer 1
10
52.189000
20
31.131700
11
53.684445
21
33.065085
0
LINE
8
Layer 1
10
53.684445
20
33.065085
11
55.395936
21
34.768584
0
LINE
8
Layer 1
10
55.395936
20
34.768584
11
57.283083
21
36.277901
0
LINE
8
Layer 1
10
57.283083
20
36.277901
11
59.305496
21
37.628744
0
LINE
8
Layer 1
10
59.305496
20
37.628744
11
63.594558
21
39.997832
0
LINE
8
Layer 1
10
63.594558
20
39.997832
11
67.940000
21
42.161500
0
LINE
8
Layer 1
10
67.940000
20
42.161500
11
72.370200
21
44.254002
0
LINE
8
Layer 1
10
72.370200
20
44.254002
11
76.763111
21
46.445809
0
LINE
8
Layer 1
10
76.763111
20
46.445809
11
80.986067
21
48.920116
0
LINE
8
Layer 1
10
80.986067
20
48.920116
11
82.992353
21
50.320456
0
LINE
8
Layer 1
10
82.992353
20
50.320456
11
84.906400
21
51.860120
0
LINE
8
Layer 1
10
84.906400
20
51.860120
11
84.906300
21
51.860200
0
LINE
8
Layer 1
10
84.062942
20
51.521203
11
80.481765
21
48.933774
0
LINE
8
Layer 1
10
80.481765
20
48.933774
11
76.671451
21
46.715048
0
LINE
8
Layer 1
10
76.671451
20
46.715048
11
72.716892
21
44.730207
0
LINE
8
Layer 1
10
72.716892
20
44.730207
11
68.702981
21
42.844436
0
LINE
8
Layer 1
10
68.702981
20
42.844436
11
64.714608
21
40.922916
0
LINE
8
Layer 1
10
64.714608
20
40.922916
11
60.836666
21
38.830832
0
LINE
8
Layer 1
10
60.836666
20
38.830832
11
57.154047
21
36.433366
0
LINE
8
Layer 1
10
57.154047
20
36.433366
11
55.412512
21
35.077985
0
LINE
8
Layer 1
10
55.412512
20
35.077985
11
53.751642
21
33.595703
0
LINE
8
Layer 1
10
53.751642
20
33.595703
11
52.566121
21
32.242661
0
LINE
8
Layer 1
10
52.566121
20
32.242661
11
51.627244
21
30.708756
0
LINE
8
Layer 1
10
51.627244
20
30.708756
11
50.955358
21
29.044726
0
LINE
8
Layer 1
10
50.955358
20
29.044726
11
50.570811
21
27.301307
0
LINE
8
Layer 1
10
50.570811
20
27.301307
11
50.493951
21
25.529237
0
LINE
8
Layer 1
10
50.493951
20
25.529237
11
50.745126
21
23.779255
0
LINE
8
Layer 1
10
50.745126
20
23.779255
11
51.344684
21
22.102098
0
LINE
8
Layer 1
10
51.344684
20
22.102098
11
52.312972
21
20.548503
0
LINE
8
Layer 1
10
52.312972
20
20.548503
11
53.605011
21
19.084492
0
LINE
8
Layer 1
10
53.605011
20
19.084492
11
55.054197
21
17.812032
0
LINE
8
Layer 1
10
55.054197
20
17.812032
11
56.627413
21
16.693006
0
LINE
8
Layer 1
10
56.627413
20
16.693006
11
58.291543
21
15.689298
0
LINE
8
Layer 1
10
58.291543
20
15.689298
11
65.194872
21
12.065313
0
LINE
8
Layer 1
10
65.194872
20
12.065313
11
70.155706
21
9.503217
0
LINE
8
Layer 1
10
70.155706
20
9.503217
11
75.040622
21
6.784911
0
LINE
8
Layer 1
10
75.040622
20
6.784911
11
79.730013
21
3.763331
0
LINE
8
Layer 1
10
79.730013
20
3.763331
11
81.964009
21
2.092855
0
LINE
8
Layer 1
10
81.964009
20
2.092855
11
84.104272
21
0.291413
0
LINE
8
Layer 1
10
84.104272
20
0.291413
11
0.264583
21
7.286210
0
LINE
8
Layer 1
10
0.264583
20
7.286210
11
0.264583
21
25.856600
0
LINE
8
Layer 1
10
0.264583
20
25.856600
11
21.282400
21
46.287400
0
LINE
8
Layer 1
10
21.282400
20
46.287400
11
84.063000
21
51.521200
0
LINE
8
Layer 1
10
84.063000
20
51.521200
11
84.062942
21
51.521203
 0 
ENDSEC
 0 
EOF