999
"DXF R12 Output"
 0 
SECTION
 2 
HEADER
 9 
$ACADVER
 1 
AC1009
 9 
$EXTMIN
 10 
 0 
 20 
 0 
 9 
$EXTMAX
 10 
 8.5 
 20 
 11 
 0 
ENDSEC
 0 
SECTION
 2 
ENTITIES
0
LINE
8
Layer 1
10
84.906300
20
51.863700
11
0.000000
21
44.786100
0
LINE
8
Layer 1
10
0.000000
20
44.786100
11
0.000000
21
7.041700
0
LINE
8
Layer 1
10
0.000000
20
7.041700
11
84.881501
21
-0.027640
0
LINE
8
Layer 1
10
84.881501
20
-0.027640
11
81.558079
21
2.781515
0
LINE
8
Layer 1
10
81.558079
20
2.781515
11
78.023475
21
5.268387
0
LINE
8
Layer 1
10
78.023475
20
5.268387
11
74.329872
21
7.512729
0
LINE
8
Layer 1
10
74.329872
20
7.512729
11
70.529450
21
9.594290
0
LINE
8
Layer 1
10
70.529450
20
9.594290
11
62.816875
21
13.588077
0
LINE
8
Layer 1
10
62.816875
20
13.588077
11
59.009085
21
15.659806
0
LINE
8
Layer 1
10
59.009085
20
15.659806
11
55.303201
21
17.887760
0
LINE
8
Layer 1
10
55.303201
20
17.887760
11
53.836219
21
19.080084
0
LINE
8
Layer 1
10
53.836219
20
19.080084
11
52.617209
21
20.523176
0
LINE
8
Layer 1
10
52.617209
20
20.523176
11
51.676099
21
22.157799
0
LINE
8
Layer 1
10
51.676099
20
22.157799
11
51.042814
21
23.924720
0
LINE
8
Layer 1
10
51.042814
20
23.924720
11
50.747282
21
25.764702
0
LINE
8
Layer 1
10
50.747282
20
25.764702
11
50.819430
21
27.618509
0
LINE
8
Layer 1
10
50.819430
20
27.618509
11
51.289184
21
29.426907
0
LINE
8
Layer 1
10
51.289184
20
29.426907
11
52.186471
21
31.130660
0
LINE
8
Layer 1
10
52.186471
20
31.130660
11
53.681984
21
33.064170
0
LINE
8
Layer 1
10
53.681984
20
33.064170
11
55.393655
21
34.767998
0
LINE
8
Layer 1
10
55.393655
20
34.767998
11
57.281055
21
36.277781
0
LINE
8
Layer 1
10
57.281055
20
36.277781
11
59.303754
21
37.629157
0
LINE
8
Layer 1
10
59.303754
20
37.629157
11
63.593336
21
39.999243
0
LINE
8
Layer 1
10
63.593336
20
39.999243
11
67.938971
21
42.163360
0
LINE
8
Layer 1
10
67.938971
20
42.163360
11
72.369311
21
44.256123
0
LINE
8
Layer 1
10
72.369311
20
44.256123
11
76.762532
21
46.448504
0
LINE
8
Layer 1
10
76.762532
20
46.448504
11
80.985797
21
48.923385
0
LINE
8
Layer 1
10
80.985797
20
48.923385
11
82.992185
21
50.323914
0
LINE
8
Layer 1
10
82.992185
20
50.323914
11
84.906271
21
51.863650
0
LINE
8
Layer 1
10
84.906271
20
51.863650
11
84.906300
21
51.863700
0
LINE
8
Layer 1
10
84.062942
20
51.524703
11
80.481701
21
48.937193
0
LINE
8
Layer 1
10
80.481701
20
48.937193
11
76.671217
21
46.718253
0
LINE
8
Layer 1
10
76.671217
20
46.718253
11
72.716418
21
44.733109
0
LINE
8
Layer 1
10
72.716418
20
44.733109
11
68.702231
21
42.846989
0
LINE
8
Layer 1
10
68.702231
20
42.846989
11
64.713583
21
40.925121
0
LINE
8
Layer 1
10
64.713583
20
40.925121
11
60.835400
21
38.832733
0
LINE
8
Layer 1
10
60.835400
20
38.832733
11
57.152611
21
36.435051
0
LINE
8
Layer 1
10
57.152611
20
36.435051
11
55.411029
21
35.079608
0
LINE
8
Layer 1
10
55.411029
20
35.079608
11
53.750142
21
33.597303
0
LINE
8
Layer 1
10
53.750142
20
33.597303
11
52.564527
21
32.244236
0
LINE
8
Layer 1
10
52.564527
20
32.244236
11
51.625403
21
30.710265
0
LINE
8
Layer 1
10
51.625403
20
30.710265
11
50.953168
21
29.046141
0
LINE
8
Layer 1
10
50.953168
20
29.046141
11
50.568221
21
27.302614
0
LINE
8
Layer 1
10
50.568221
20
27.302614
11
50.490961
21
25.530436
0
LINE
8
Layer 1
10
50.490961
20
25.530436
11
50.741787
21
23.780358
0
LINE
8
Layer 1
10
50.741787
20
23.780358
11
51.341097
21
22.103130
0
LINE
8
Layer 1
10
51.341097
20
22.103130
11
52.309292
21
20.549503
0
LINE
8
Layer 1
10
52.309292
20
20.549503
11
53.601340
21
19.085343
0
LINE
8
Layer 1
10
53.601340
20
19.085343
11
55.050551
21
17.812490
0
LINE
8
Layer 1
10
55.050551
20
17.812490
11
56.623801
21
16.692908
0
LINE
8
Layer 1
10
56.623801
20
16.692908
11
58.287971
21
15.688563
0
LINE
8
Layer 1
10
58.287971
20
15.688563
11
65.191392
21
12.062843
0
LINE
8
Layer 1
10
65.191392
20
12.062843
11
70.152773
21
9.501671
0
LINE
8
Layer 1
10
70.152773
20
9.501671
11
75.038892
21
6.785398
0
LINE
8
Layer 1
10
75.038892
20
6.785398
11
79.729486
21
3.765847
0
LINE
8
Layer 1
10
79.729486
20
3.765847
11
81.963879
21
2.096038
0
LINE
8
Layer 1
10
81.963879
20
2.096038
11
84.104292
21
0.294843
0
LINE
8
Layer 1
10
84.104292
20
0.294843
11
0.264592
21
7.289753
0
LINE
8
Layer 1
10
0.264592
20
7.289753
11
0.264592
21
44.538053
0
LINE
8
Layer 1
10
0.264592
20
44.538053
11
84.062992
21
51.524693
0
LINE
8
Layer 1
10
84.062992
20
51.524693
11
84.062942
21
51.524703
 0 
ENDSEC
 0 
EOF