999
"DXF R12 Output" (www.mydxf.blogspot.com)
 0 
SECTION
 2 
HEADER
 9 
$ACADVER
 1 
AC1009
 9 
$EXTMIN
 10 
 0 
 20 
 0 
 9 
$EXTMAX
 10 
 8.5 
 20 
 11 
 0 
ENDSEC
 0 
SECTION
 2 
ENTITIES
0
LINE
8
Layer 1
10
10.318700
20
166.296000
11
8.831979
21
159.440613
0
LINE
8
Layer 1
10
8.831979
20
159.440613
11
7.511788
21
152.550469
0
LINE
8
Layer 1
10
7.511788
20
152.550469
11
6.348168
21
145.630840
0
LINE
8
Layer 1
10
6.348168
20
145.630840
11
5.331160
21
138.687000
0
LINE
8
Layer 1
10
5.331160
20
138.687000
11
3.697147
21
124.747781
0
LINE
8
Layer 1
10
3.697147
20
124.747781
11
2.530080
21
110.775000
0
LINE
8
Layer 1
10
2.530080
20
110.775000
11
7.540620
21
103.928910
0
LINE
8
Layer 1
10
7.540620
20
103.928910
11
9.546620
21
103.244006
0
LINE
8
Layer 1
10
9.546620
20
103.244006
11
11.466261
21
102.368579
0
LINE
8
Layer 1
10
11.466261
20
102.368579
11
13.289050
21
101.316242
0
LINE
8
Layer 1
10
13.289050
20
101.316242
11
15.004493
21
100.100607
0
LINE
8
Layer 1
10
15.004493
20
100.100607
11
16.602097
21
98.735286
0
LINE
8
Layer 1
10
16.602097
20
98.735286
11
18.071367
21
97.233893
0
LINE
8
Layer 1
10
18.071367
20
97.233893
11
19.401810
21
95.610039
0
LINE
8
Layer 1
10
19.401810
20
95.610039
11
20.582932
21
93.877338
0
LINE
8
Layer 1
10
20.582932
20
93.877338
11
21.604240
21
92.049401
0
LINE
8
Layer 1
10
21.604240
20
92.049401
11
22.455240
21
90.139841
0
LINE
8
Layer 1
10
22.455240
20
90.139841
11
23.125438
21
88.162272
0
LINE
8
Layer 1
10
23.125438
20
88.162272
11
23.604340
21
86.130305
0
LINE
8
Layer 1
10
23.604340
20
86.130305
11
23.881453
21
84.057552
0
LINE
8
Layer 1
10
23.881453
20
84.057552
11
23.946283
21
81.957627
0
LINE
8
Layer 1
10
23.946283
20
81.957627
11
23.788337
21
79.844142
0
LINE
8
Layer 1
10
23.788337
20
79.844142
11
23.397120
21
77.730710
0
LINE
8
Layer 1
10
23.397120
20
77.730710
11
23.000480
21
76.100146
0
LINE
8
Layer 1
10
23.000480
20
76.100146
11
22.466089
21
74.534446
0
LINE
8
Layer 1
10
22.466089
20
74.534446
11
21.018723
21
71.604106
0
LINE
8
Layer 1
10
21.018723
20
71.604106
11
19.124361
21
68.952620
0
LINE
8
Layer 1
10
19.124361
20
68.952620
11
16.852340
21
66.592920
0
LINE
8
Layer 1
10
16.852340
20
66.592920
11
14.271998
21
64.537938
0
LINE
8
Layer 1
10
14.271998
20
64.537938
11
11.452672
21
62.800604
0
LINE
8
Layer 1
10
11.452672
20
62.800604
11
8.463700
21
61.393851
0
LINE
8
Layer 1
10
8.463700
20
61.393851
11
5.374420
21
60.330610
0
LINE
8
Layer 1
10
5.374420
20
60.330610
11
2.655128
21
56.726723
0
LINE
8
Layer 1
10
2.655128
20
56.726723
11
0.000080
21
53.104190
0
LINE
8
Layer 1
10
0.000080
20
53.104190
11
1.816420
21
45.889382
0
LINE
8
Layer 1
10
1.816420
20
45.889382
11
3.919895
21
38.717348
0
LINE
8
Layer 1
10
3.919895
20
38.717348
11
6.361032
21
31.646838
0
LINE
8
Layer 1
10
6.361032
20
31.646838
11
9.190358
21
24.736603
0
LINE
8
Layer 1
10
9.190358
20
24.736603
11
12.458398
21
18.045390
0
LINE
8
Layer 1
10
12.458398
20
18.045390
11
14.272726
21
14.800277
0
LINE
8
Layer 1
10
14.272726
20
14.800277
11
16.215681
21
11.631951
0
LINE
8
Layer 1
10
16.215681
20
11.631951
11
18.293578
21
8.547755
0
LINE
8
Layer 1
10
18.293578
20
8.547755
11
20.512733
21
5.555034
0
LINE
8
Layer 1
10
20.512733
20
5.555034
11
22.879461
21
2.661131
0
LINE
8
Layer 1
10
22.879461
20
2.661131
11
25.400080
21
-0.126610
0
LINE
8
Layer 1
10
25.400080
20
-0.126610
11
31.557154
21
19.597312
0
LINE
8
Layer 1
10
31.557154
20
19.597312
11
34.634606
21
29.493441
0
LINE
8
Layer 1
10
34.634606
20
29.493441
11
37.521862
21
39.438440
0
LINE
8
Layer 1
10
37.521862
20
39.438440
11
40.076822
21
49.451876
0
LINE
8
Layer 1
10
40.076822
20
49.451876
11
42.157380
21
59.553318
0
LINE
8
Layer 1
10
42.157380
20
59.553318
11
42.975351
21
64.643156
0
LINE
8
Layer 1
10
42.975351
20
64.643156
11
43.621434
21
69.762333
0
LINE
8
Layer 1
10
43.621434
20
69.762333
11
44.077864
21
74.913296
0
LINE
8
Layer 1
10
44.077864
20
74.913296
11
44.326880
21
80.098490
0
LINE
8
Layer 1
10
44.326880
20
80.098490
11
44.219921
21
84.832942
0
LINE
8
Layer 1
10
44.219921
20
84.832942
11
43.844000
21
89.517994
0
LINE
8
Layer 1
10
43.844000
20
89.517994
11
43.216123
21
94.153852
0
LINE
8
Layer 1
10
43.216123
20
94.153852
11
42.353296
21
98.740722
0
LINE
8
Layer 1
10
42.353296
20
98.740722
11
41.272525
21
103.278810
0
LINE
8
Layer 1
10
41.272525
20
103.278810
11
39.990816
21
107.768321
0
LINE
8
Layer 1
10
39.990816
20
107.768321
11
38.525176
21
112.209461
0
LINE
8
Layer 1
10
38.525176
20
112.209461
11
36.892610
21
116.602436
0
LINE
8
Layer 1
10
36.892610
20
116.602436
11
33.194726
21
125.244715
0
LINE
8
Layer 1
10
33.194726
20
125.244715
11
29.033214
21
133.696805
0
LINE
8
Layer 1
10
29.033214
20
133.696805
11
24.544122
21
141.960351
0
LINE
8
Layer 1
10
24.544122
20
141.960351
11
19.863500
21
150.037000
0
LINE
8
Layer 1
10
19.863500
20
150.037000
11
10.318700
21
166.296000
0
LINE
8
Layer 1
10
10.318700
20
166.296000
11
10.318700
21
166.296000
0
LINE
8
Layer 1
10
10.426187
20
165.584933
11
20.712645
21
148.086677
0
LINE
8
Layer 1
10
20.712645
20
148.086677
11
25.753635
21
139.215404
0
LINE
8
Layer 1
10
25.753635
20
139.215404
11
30.505050
21
130.202883
0
LINE
8
Layer 1
10
30.505050
20
130.202883
11
32.720271
21
125.629634
0
LINE
8
Layer 1
10
32.720271
20
125.629634
11
34.800825
21
121.004249
0
LINE
8
Layer 1
10
34.800825
20
121.004249
11
36.725953
21
116.321120
0
LINE
8
Layer 1
10
36.725953
20
116.321120
11
38.474898
21
111.574639
0
LINE
8
Layer 1
10
38.474898
20
111.574639
11
40.026902
21
106.759198
0
LINE
8
Layer 1
10
40.026902
20
106.759198
11
41.361206
21
101.869188
0
LINE
8
Layer 1
10
41.361206
20
101.869188
11
42.457054
21
96.899003
0
LINE
8
Layer 1
10
42.457054
20
96.899003
11
43.293687
21
91.843033
0
LINE
8
Layer 1
10
43.293687
20
91.843033
11
43.748046
21
87.483217
0
LINE
8
Layer 1
10
43.748046
20
87.483217
11
43.976078
21
83.131130
0
LINE
8
Layer 1
10
43.976078
20
83.131130
11
43.994077
21
78.787704
0
LINE
8
Layer 1
10
43.994077
20
78.787704
11
43.818339
21
74.453875
0
LINE
8
Layer 1
10
43.818339
20
74.453875
11
43.465160
21
70.130576
0
LINE
8
Layer 1
10
43.465160
20
70.130576
11
42.950835
21
65.818740
0
LINE
8
Layer 1
10
42.950835
20
65.818740
11
41.503931
21
57.233195
0
LINE
8
Layer 1
10
41.503931
20
57.233195
11
39.607989
21
48.704712
0
LINE
8
Layer 1
10
39.607989
20
48.704712
11
37.393376
21
40.240760
0
LINE
8
Layer 1
10
37.393376
20
40.240760
11
32.529587
21
23.536333
0
LINE
8
Layer 1
10
32.529587
20
23.536333
11
25.275907
21
0.394233
0
LINE
8
Layer 1
10
25.275907
20
0.394233
11
22.797893
21
3.163752
0
LINE
8
Layer 1
10
22.797893
20
3.163752
11
20.471455
21
6.036856
0
LINE
8
Layer 1
10
20.471455
20
6.036856
11
18.290281
21
9.006359
0
LINE
8
Layer 1
10
18.290281
20
9.006359
11
16.248057
21
12.065075
0
LINE
8
Layer 1
10
16.248057
20
12.065075
11
12.555199
21
18.421400
0
LINE
8
Layer 1
10
12.555199
20
18.421400
11
9.342371
21
25.048342
0
LINE
8
Layer 1
10
9.342371
20
25.048342
11
6.559061
21
31.888412
0
LINE
8
Layer 1
10
6.559061
20
31.888412
11
4.154756
21
38.884121
0
LINE
8
Layer 1
10
4.154756
20
38.884121
11
2.078947
21
45.977980
0
LINE
8
Layer 1
10
2.078947
20
45.977980
11
0.281120
21
53.112500
0
LINE
8
Layer 1
10
0.281120
20
53.112500
11
5.564510
21
60.140500
0
LINE
8
Layer 1
10
5.564510
20
60.140500
11
9.218495
21
61.390491
0
LINE
8
Layer 1
10
9.218495
20
61.390491
11
12.688154
21
63.163944
0
LINE
8
Layer 1
10
12.688154
20
63.163944
11
15.875120
21
65.414331
0
LINE
8
Layer 1
10
15.875120
20
65.414331
11
18.681026
21
68.095125
0
LINE
8
Layer 1
10
18.681026
20
68.095125
11
19.910342
21
69.582384
0
LINE
8
Layer 1
10
19.910342
20
69.582384
11
21.007504
21
71.159797
0
LINE
8
Layer 1
10
21.007504
20
71.159797
11
21.960218
21
72.821547
0
LINE
8
Layer 1
10
21.960218
20
72.821547
11
22.756188
21
74.561819
0
LINE
8
Layer 1
10
22.756188
20
74.561819
11
23.383116
21
76.374796
0
LINE
8
Layer 1
10
23.383116
20
76.374796
11
23.828709
21
78.254662
0
LINE
8
Layer 1
10
23.828709
20
78.254662
11
24.080668
21
80.195603
0
LINE
8
Layer 1
10
24.080668
20
80.195603
11
24.126700
21
82.191800
0
LINE
8
Layer 1
10
24.126700
20
82.191800
11
24.106786
21
84.060422
0
LINE
8
Layer 1
10
24.106786
20
84.060422
11
23.912545
21
85.899819
0
LINE
8
Layer 1
10
23.912545
20
85.899819
11
23.552490
21
87.702110
0
LINE
8
Layer 1
10
23.552490
20
87.702110
11
23.035135
21
89.459414
0
LINE
8
Layer 1
10
23.035135
20
89.459414
11
22.368994
21
91.163848
0
LINE
8
Layer 1
10
22.368994
20
91.163848
11
21.562579
21
92.807530
0
LINE
8
Layer 1
10
21.562579
20
92.807530
11
19.562984
21
95.881113
0
LINE
8
Layer 1
10
19.562984
20
95.881113
11
17.104457
21
98.617106
0
LINE
8
Layer 1
10
17.104457
20
98.617106
11
14.255108
21
100.952455
0
LINE
8
Layer 1
10
14.255108
20
100.952455
11
11.083043
21
102.824104
0
LINE
8
Layer 1
10
11.083043
20
102.824104
11
9.397276
21
103.566337
0
LINE
8
Layer 1
10
9.397276
20
103.566337
11
7.656370
21
104.169000
0
LINE
8
Layer 1
10
7.656370
20
104.169000
11
2.769850
21
110.891000
0
LINE
8
Layer 1
10
2.769850
20
110.891000
11
3.952472
21
124.656234
0
LINE
8
Layer 1
10
3.952472
20
124.656234
11
5.560970
21
138.386875
0
LINE
8
Layer 1
10
5.560970
20
138.386875
11
7.687996
21
152.043078
0
LINE
8
Layer 1
10
7.687996
20
152.043078
11
8.974910
21
158.830814
0
LINE
8
Layer 1
10
8.974910
20
158.830814
11
10.426200
21
165.585000
0
LINE
8
Layer 1
10
10.426200
20
165.585000
11
10.426187
21
165.584933
 0 
ENDSEC
 0 
EOF