999
"DXF R12 Output" (www.mydxf.blogspot.com)
 0 
SECTION
 2 
HEADER
 9 
$ACADVER
 1 
AC1009
 9 
$EXTMIN
 10 
 0 
 20 
 0 
 9 
$EXTMAX
 10 
 8.5 
 20 
 11 
 0 
ENDSEC
 0 
SECTION
 2 
ENTITIES
0
LINE
8
Layer 1
10
8.111120
20
150.289000
11
6.217149
21
139.050328
0
LINE
8
Layer 1
10
6.217149
20
139.050328
11
4.622148
21
127.762625
0
LINE
8
Layer 1
10
4.622148
20
127.762625
11
3.376372
21
116.435359
0
LINE
8
Layer 1
10
3.376372
20
116.435359
11
2.530080
21
105.078000
0
LINE
8
Layer 1
10
2.530080
20
105.078000
11
7.540620
21
98.231910
0
LINE
8
Layer 1
10
7.540620
20
98.231910
11
9.478019
21
97.568612
0
LINE
8
Layer 1
10
9.478019
20
97.568612
11
11.337636
21
96.728230
0
LINE
8
Layer 1
10
11.337636
20
96.728230
11
13.109447
21
95.722780
0
LINE
8
Layer 1
10
13.109447
20
95.722780
11
14.783429
21
94.564277
0
LINE
8
Layer 1
10
14.783429
20
94.564277
11
16.349561
21
93.264739
0
LINE
8
Layer 1
10
16.349561
20
93.264739
11
17.797818
21
91.836181
0
LINE
8
Layer 1
10
17.797818
20
91.836181
11
19.118179
21
90.290620
0
LINE
8
Layer 1
10
19.118179
20
90.290620
11
20.300620
21
88.640073
0
LINE
8
Layer 1
10
20.300620
20
88.640073
11
21.335119
21
86.896554
0
LINE
8
Layer 1
10
21.335119
20
86.896554
11
22.211653
21
85.072081
0
LINE
8
Layer 1
10
22.211653
20
85.072081
11
22.920200
21
83.178670
0
LINE
8
Layer 1
10
22.920200
20
83.178670
11
23.450736
21
81.228337
0
LINE
8
Layer 1
10
23.450736
20
81.228337
11
23.793238
21
79.233098
0
LINE
8
Layer 1
10
23.793238
20
79.233098
11
23.937685
21
77.204970
0
LINE
8
Layer 1
10
23.937685
20
77.204970
11
23.874053
21
75.155968
0
LINE
8
Layer 1
10
23.874053
20
75.155968
11
23.592320
21
73.098110
0
LINE
8
Layer 1
10
23.592320
20
73.098110
11
23.270195
21
71.376226
0
LINE
8
Layer 1
10
23.270195
20
71.376226
11
22.794204
21
69.719212
0
LINE
8
Layer 1
10
22.794204
20
69.719212
11
22.173990
21
68.129393
0
LINE
8
Layer 1
10
22.173990
20
68.129393
11
21.419195
21
66.609092
0
LINE
8
Layer 1
10
21.419195
20
66.609092
11
19.544436
21
63.786336
0
LINE
8
Layer 1
10
19.544436
20
63.786336
11
17.247066
21
61.269532
0
LINE
8
Layer 1
10
17.247066
20
61.269532
11
14.604229
21
59.077270
0
LINE
8
Layer 1
10
14.604229
20
59.077270
11
11.693064
21
57.228137
0
LINE
8
Layer 1
10
11.693064
20
57.228137
11
8.590714
21
55.740721
0
LINE
8
Layer 1
10
8.590714
20
55.740721
11
5.374320
21
54.633610
0
LINE
8
Layer 1
10
5.374320
20
54.633610
11
2.654990
21
51.029734
0
LINE
8
Layer 1
10
2.654990
20
51.029734
11
-0.000020
21
47.407190
0
LINE
8
Layer 1
10
-0.000020
20
47.407190
11
1.640491
21
41.104741
0
LINE
8
Layer 1
10
1.640491
20
41.104741
11
3.455236
21
34.820129
0
LINE
8
Layer 1
10
3.455236
20
34.820129
11
5.491856
21
28.595669
0
LINE
8
Layer 1
10
5.491856
20
28.595669
11
7.797991
21
22.473677
0
LINE
8
Layer 1
10
7.797991
20
22.473677
11
10.421281
21
16.496468
0
LINE
8
Layer 1
10
10.421281
20
16.496468
11
13.409365
21
10.706357
0
LINE
8
Layer 1
10
13.409365
20
10.706357
11
16.809885
21
5.145659
0
LINE
8
Layer 1
10
16.809885
20
5.145659
11
20.670480
21
-0.143310
0
LINE
8
Layer 1
10
20.670480
20
-0.143310
11
23.724610
21
9.402669
0
LINE
8
Layer 1
10
23.724610
20
9.402669
11
27.005476
21
18.938807
0
LINE
8
Layer 1
10
27.005476
20
18.938807
11
30.301633
21
28.495521
0
LINE
8
Layer 1
10
30.301633
20
28.495521
11
33.401635
21
38.103227
0
LINE
8
Layer 1
10
33.401635
20
38.103227
11
36.094036
21
47.792341
0
LINE
8
Layer 1
10
36.094036
20
47.792341
11
37.221310
21
52.676931
0
LINE
8
Layer 1
10
37.221310
20
52.676931
11
38.167391
21
57.593279
0
LINE
8
Layer 1
10
38.167391
20
57.593279
11
38.905850
21
62.545187
0
LINE
8
Layer 1
10
38.905850
20
62.545187
11
39.410254
21
67.536457
0
LINE
8
Layer 1
10
39.410254
20
67.536457
11
39.654175
21
72.570890
0
LINE
8
Layer 1
10
39.654175
20
72.570890
11
39.611180
21
77.652290
0
LINE
8
Layer 1
10
39.611180
20
77.652290
11
39.432799
21
81.112450
0
LINE
8
Layer 1
10
39.432799
20
81.112450
11
39.088833
21
84.543572
0
LINE
8
Layer 1
10
39.088833
20
84.543572
11
38.587232
21
87.944471
0
LINE
8
Layer 1
10
38.587232
20
87.944471
11
37.935942
21
91.313960
0
LINE
8
Layer 1
10
37.935942
20
91.313960
11
36.216086
21
97.953961
0
LINE
8
Layer 1
10
36.216086
20
97.953961
11
33.992847
21
104.454086
0
LINE
8
Layer 1
10
33.992847
20
104.454086
11
31.329808
21
110.804843
0
LINE
8
Layer 1
10
31.329808
20
110.804843
11
28.290550
21
116.996742
0
LINE
8
Layer 1
10
28.290550
20
116.996742
11
24.938653
21
123.020291
0
LINE
8
Layer 1
10
24.938653
20
123.020291
11
21.337700
21
128.866000
0
LINE
8
Layer 1
10
21.337700
20
128.866000
11
14.612465
21
139.509250
0
LINE
8
Layer 1
10
14.612465
20
139.509250
11
11.298897
21
144.860969
0
LINE
8
Layer 1
10
11.298897
20
144.860969
11
8.111120
21
150.289000
0
LINE
8
Layer 1
10
8.111120
20
150.289000
11
8.111120
21
150.289000
0
LINE
8
Layer 1
10
8.243411
20
149.536592
11
12.472740
21
142.509362
0
LINE
8
Layer 1
10
12.472740
20
142.509362
11
16.859294
21
135.519361
0
LINE
8
Layer 1
10
16.859294
20
135.519361
11
21.246497
21
128.506644
0
LINE
8
Layer 1
10
21.246497
20
128.506644
11
25.477773
21
121.411267
0
LINE
8
Layer 1
10
25.477773
20
121.411267
11
29.396549
21
114.173287
0
LINE
8
Layer 1
10
29.396549
20
114.173287
11
31.189818
21
110.482089
0
LINE
8
Layer 1
10
31.189818
20
110.482089
11
32.846247
21
106.732761
0
LINE
8
Layer 1
10
32.846247
20
106.732761
11
34.346262
21
102.917810
0
LINE
8
Layer 1
10
34.346262
20
102.917810
11
35.670293
21
99.029744
0
LINE
8
Layer 1
10
35.670293
20
99.029744
11
36.798766
21
95.061069
0
LINE
8
Layer 1
10
36.798766
20
95.061069
11
37.712111
21
91.004292
0
LINE
8
Layer 1
10
37.712111
20
91.004292
11
38.453269
21
87.091058
0
LINE
8
Layer 1
10
38.453269
20
87.091058
11
38.976078
21
83.168649
0
LINE
8
Layer 1
10
38.976078
20
83.168649
11
39.292747
21
79.240222
0
LINE
8
Layer 1
10
39.292747
20
79.240222
11
39.415486
21
75.308934
0
LINE
8
Layer 1
10
39.415486
20
75.308934
11
39.356502
21
71.377944
0
LINE
8
Layer 1
10
39.356502
20
71.377944
11
39.128006
21
67.450408
0
LINE
8
Layer 1
10
39.128006
20
67.450408
11
38.211309
21
59.618329
0
LINE
8
Layer 1
10
38.211309
20
59.618329
11
36.763067
21
51.837959
0
LINE
8
Layer 1
10
36.763067
20
51.837959
11
34.880951
21
44.134556
0
LINE
8
Layer 1
10
34.880951
20
44.134556
11
32.662632
21
36.533380
0
LINE
8
Layer 1
10
32.662632
20
36.533380
11
30.205781
21
29.059692
0
LINE
8
Layer 1
10
30.205781
20
29.059692
11
25.293598
21
14.770542
0
LINE
8
Layer 1
10
25.293598
20
14.770542
11
22.868128
21
7.615968
0
LINE
8
Layer 1
10
22.868128
20
7.615968
11
20.571300
21
0.418947
0
LINE
8
Layer 1
10
20.571300
20
0.418947
11
16.796770
21
5.664470
0
LINE
8
Layer 1
10
16.796770
20
5.664470
11
13.467907
21
11.170368
0
LINE
8
Layer 1
10
13.467907
20
11.170368
11
10.538772
21
16.896317
0
LINE
8
Layer 1
10
10.538772
20
16.896317
11
7.963424
21
22.801993
0
LINE
8
Layer 1
10
7.963424
20
22.801993
11
5.695924
21
28.847073
0
LINE
8
Layer 1
10
5.695924
20
28.847073
11
3.690333
21
34.991234
0
LINE
8
Layer 1
10
3.690333
20
34.991234
11
1.900712
21
41.194150
0
LINE
8
Layer 1
10
1.900712
20
41.194150
11
0.281120
21
47.415500
0
LINE
8
Layer 1
10
0.281120
20
47.415500
11
5.564510
21
54.443500
0
LINE
8
Layer 1
10
5.564510
20
54.443500
11
9.218495
21
55.693491
0
LINE
8
Layer 1
10
9.218495
20
55.693491
11
12.688154
21
57.466944
0
LINE
8
Layer 1
10
12.688154
20
57.466944
11
15.875120
21
59.717331
0
LINE
8
Layer 1
10
15.875120
20
59.717331
11
18.681026
21
62.398125
0
LINE
8
Layer 1
10
18.681026
20
62.398125
11
19.910342
21
63.885384
0
LINE
8
Layer 1
10
19.910342
20
63.885384
11
21.007504
21
65.462797
0
LINE
8
Layer 1
10
21.007504
20
65.462797
11
21.960218
21
67.124547
0
LINE
8
Layer 1
10
21.960218
20
67.124547
11
22.756188
21
68.864819
0
LINE
8
Layer 1
10
22.756188
20
68.864819
11
23.383116
21
70.677796
0
LINE
8
Layer 1
10
23.383116
20
70.677796
11
23.828709
21
72.557662
0
LINE
8
Layer 1
10
23.828709
20
72.557662
11
24.080668
21
74.498603
0
LINE
8
Layer 1
10
24.080668
20
74.498603
11
24.126700
21
76.494800
0
LINE
8
Layer 1
10
24.126700
20
76.494800
11
24.106786
21
78.363418
0
LINE
8
Layer 1
10
24.106786
20
78.363418
11
23.912545
21
80.202806
0
LINE
8
Layer 1
10
23.912545
20
80.202806
11
23.552490
21
82.005083
0
LINE
8
Layer 1
10
23.552490
20
82.005083
11
23.035135
21
83.762369
0
LINE
8
Layer 1
10
23.035135
20
83.762369
11
22.368994
21
85.466781
0
LINE
8
Layer 1
10
22.368994
20
85.466781
11
21.562579
21
87.110441
0
LINE
8
Layer 1
10
21.562579
20
87.110441
11
19.562984
21
90.183975
0
LINE
8
Layer 1
10
19.562984
20
90.183975
11
17.104457
21
92.919925
0
LINE
8
Layer 1
10
17.104457
20
92.919925
11
14.255108
21
95.255244
0
LINE
8
Layer 1
10
14.255108
20
95.255244
11
11.083043
21
97.126884
0
LINE
8
Layer 1
10
11.083043
20
97.126884
11
9.397276
21
97.869123
0
LINE
8
Layer 1
10
9.397276
20
97.869123
11
7.656370
21
98.471800
0
LINE
8
Layer 1
10
7.656370
20
98.471800
11
2.769850
21
105.194000
0
LINE
8
Layer 1
10
2.769850
20
105.194000
11
3.631795
21
116.338094
0
LINE
8
Layer 1
10
3.631795
20
116.338094
11
4.849776
21
127.445250
0
LINE
8
Layer 1
10
4.849776
20
127.445250
11
6.396185
21
138.512281
0
LINE
8
Layer 1
10
6.396185
20
138.512281
11
8.243410
21
149.536000
0
LINE
8
Layer 1
10
8.243410
20
149.536000
11
8.243411
21
149.536592
 0 
ENDSEC
 0 
EOF